<?xml version="1.0" standalone="no"?>
<!DOCTYPE svg PUBLIC "-//W3C//DTD SVG 20010904//EN"
 "http://www.w3.org/TR/2001/REC-SVG-20010904/DTD/svg10.dtd">
<svg version="1.0" xmlns="http://www.w3.org/2000/svg"
 width="91.000000pt" height="91.000000pt" viewBox="0 0 91.000000 91.000000"
 preserveAspectRatio="xMidYMid meet">
<metadata>
Created by potrace 1.10, written by Peter Selinger 2001-2011
</metadata>
<g transform="translate(0.000000,91.000000) scale(0.100000,-0.100000)"
fill="#000000" stroke="none">
<path d="M70 600 c0 -5 17 -10 38 -10 495 -7 772 -4 772 8 0 9 -88 12 -405 12
-263 0 -405 -3 -405 -10z"/>
<path d="M76 557 c-9 -7 -18 -26 -20 -44 -3 -18 -7 -37 -11 -43 -12 -19 5 -48
31 -53 29 -5 64 22 64 48 0 21 -18 19 -25 -4 -7 -24 -34 -35 -41 -17 -3 8 -2
34 3 58 7 33 13 43 28 43 16 0 20 -6 18 -27 -2 -32 13 -37 22 -8 14 43 -32 74
-69 47z"/>
<path d="M177 548 c-3 -13 -9 -44 -12 -70 -7 -44 -5 -49 16 -57 38 -14 55 3
68 65 13 69 14 84 2 84 -5 0 -14 -29 -21 -65 -10 -54 -16 -65 -32 -65 -21 0
-21 -1 -1 103 7 32 -12 37 -20 5z"/>
<path d="M280 560 c0 -5 7 -10 16 -10 12 0 15 -6 10 -25 -4 -14 -9 -45 -13
-70 -9 -70 12 -54 26 21 8 36 20 68 27 71 28 10 13 23 -26 23 -22 0 -40 -4
-40 -10z"/>
<path d="M368 494 c-13 -61 -13 -77 -2 -81 21 -8 57 1 62 15 3 9 -3 13 -19 10
-21 -3 -24 1 -22 27 1 17 6 47 11 68 8 28 7 37 -3 37 -7 0 -18 -30 -27 -76z"/>
<path d="M467 533 c-10 -61 15 -58 28 5 5 24 3 32 -8 32 -9 0 -17 -14 -20 -37z"/>
<path d="M526 558 c-13 -40 -15 -68 -7 -68 13 0 17 8 26 48 4 21 3 32 -5 32
-6 0 -12 -6 -14 -12z"/>
<path d="M567 538 c-2 -18 0 -39 5 -45 12 -15 58 -17 58 -3 0 6 -8 10 -18 10
-26 0 -33 10 -21 31 5 11 21 19 34 19 14 0 25 5 25 10 0 6 -17 10 -39 10 -36
0 -39 -2 -44 -32z"/>
<path d="M675 558 c-5 -15 -25 -127 -25 -140 0 -4 4 -8 8 -8 5 0 15 30 23 67
10 50 19 69 32 71 23 5 23 -36 1 -53 -13 -9 -15 -20 -10 -48 4 -21 12 -37 17
-37 7 0 8 12 4 30 -5 21 -2 35 9 46 19 18 21 55 4 72 -16 16 -57 15 -63 0z"/>
<path d="M785 546 c-19 -28 -12 -50 21 -64 28 -13 32 -37 7 -46 -11 -5 -22 -1
-30 9 -6 10 -17 14 -23 10 -19 -12 18 -43 47 -40 45 5 57 57 18 79 -31 17 -36
30 -19 46 14 13 17 13 28 -2 14 -19 36 -24 36 -10 0 14 -35 42 -53 42 -9 0
-23 -11 -32 -24z"/>
<path d="M456 464 c-9 -24 -7 -54 4 -54 6 0 10 6 10 13 0 6 3 22 6 35 7 25
-11 31 -20 6z"/>
<path d="M505 449 c-6 -27 -1 -49 9 -38 10 11 17 69 8 69 -6 0 -13 -14 -17
-31z"/>
<path d="M557 473 c-4 -3 -7 -19 -7 -35 0 -26 3 -28 40 -28 45 0 55 17 13 22
-22 2 -28 8 -26 26 3 21 -7 29 -20 15z"/>
<path d="M24 391 c-2 -2 -1 -8 2 -12 8 -13 817 -12 812 1 -3 9 -804 20 -814
11z"/>
</g>
</svg>
